# xmcd
# Track frame offsets:
# 150
# 12003
# 24566
# 36592
# 49322
# 60274
# 72602
# 84243
# 95806
# 106395
# 118401
# 129347
# 139866
# 151117
# 162729
# 173351
#
# Disc length: 2461 seconds
# Revision: 0
# Processed by: cddbd v1.5.2PL0 Copyright (c) Steve Scherf et al.
# Submitted via: VisiTrax 2.10.3.257 - For more info visit www.synapsa.com
#
DISCID=d8099b10
DTITLE=Jim Reeves - Jim Reeves
DYEAR=1900
DGENRE=
TTITLE0=Mexican Joe
TTITLE1=Bimbo
TTITLE2=The Wilder Your Heart Beats the Sweeter you are
TTITLE3=Butterfly Love
TTITLE4=Gypsy Heart
TTITLE5=Drinking Tequila
TTITLE6=I'll Follow You
TTITLE7=Give me one more kiss
TTITLE8=Where does a broken heart go
TTITLE9=Shall we gather at the river
TTITLE10=Red eyed and rowdy
TTITLE11=Hillbilly waltz
TTITLE12=It's hard to love just one
TTITLE13=Are you the one
TTITLE14=Beatin' on the ding dong
TTITLE15=Penny candy
EXTD=
EXTT0=
EXTT1=
EXTT2=
EXTT3=
EXTT4=
EXTT5=
EXTT6=
EXTT7=
EXTT8=
EXTT9=
EXTT10=
EXTT11=
EXTT12=
EXTT13=
EXTT14=
EXTT15=
PLAYORDER=
